<mxfile host="app.diagrams.net" agent="Mozilla/5.0 (Windows NT 10.0; Win64; x64) AppleWebKit/537.36 (KHTML, like Gecko) Chrome/131.0.0.0 Safari/537.36 Edg/131.0.0.0" version="24.8.6">
  <diagram name="Page-1" id="S5YoCHuPcgbv4kkzpc0r">
    <mxGraphModel dx="1012" dy="794" grid="1" gridSize="10" guides="1" tooltips="1" connect="1" arrows="1" fold="1" page="1" pageScale="1" pageWidth="827" pageHeight="1169" math="0" shadow="0">
      <root>
        <mxCell id="0" />
        <mxCell id="1" parent="0" />
        <mxCell id="80N1JXQm5WCVn-kom1v4-1" value="" style="rounded=0;whiteSpace=wrap;html=1;fillColor=#66FFFF;" vertex="1" parent="1">
          <mxGeometry x="70" y="140" width="710" height="130" as="geometry" />
        </mxCell>
        <mxCell id="80N1JXQm5WCVn-kom1v4-28" style="edgeStyle=orthogonalEdgeStyle;rounded=0;orthogonalLoop=1;jettySize=auto;html=1;exitX=0.5;exitY=1;exitDx=0;exitDy=0;entryX=0.5;entryY=0;entryDx=0;entryDy=0;" edge="1" parent="1" source="80N1JXQm5WCVn-kom1v4-2" target="80N1JXQm5WCVn-kom1v4-27">
          <mxGeometry relative="1" as="geometry" />
        </mxCell>
        <mxCell id="80N1JXQm5WCVn-kom1v4-2" value="add user&lt;div&gt;R1&lt;/div&gt;" style="whiteSpace=wrap;html=1;aspect=fixed;" vertex="1" parent="1">
          <mxGeometry x="80" y="200" width="50" height="50" as="geometry" />
        </mxCell>
        <mxCell id="80N1JXQm5WCVn-kom1v4-31" style="edgeStyle=orthogonalEdgeStyle;rounded=0;orthogonalLoop=1;jettySize=auto;html=1;exitX=0.5;exitY=1;exitDx=0;exitDy=0;" edge="1" parent="1" source="80N1JXQm5WCVn-kom1v4-3">
          <mxGeometry relative="1" as="geometry">
            <mxPoint x="185.24137931034488" y="250.1379310344828" as="targetPoint" />
          </mxGeometry>
        </mxCell>
        <mxCell id="80N1JXQm5WCVn-kom1v4-32" style="edgeStyle=orthogonalEdgeStyle;rounded=0;orthogonalLoop=1;jettySize=auto;html=1;exitX=0.5;exitY=1;exitDx=0;exitDy=0;entryX=0.5;entryY=0;entryDx=0;entryDy=0;" edge="1" parent="1" source="80N1JXQm5WCVn-kom1v4-3" target="80N1JXQm5WCVn-kom1v4-27">
          <mxGeometry relative="1" as="geometry" />
        </mxCell>
        <mxCell id="80N1JXQm5WCVn-kom1v4-3" value="remove user&lt;div&gt;R1&lt;/div&gt;" style="whiteSpace=wrap;html=1;aspect=fixed;" vertex="1" parent="1">
          <mxGeometry x="160" y="200" width="50" height="50" as="geometry" />
        </mxCell>
        <mxCell id="80N1JXQm5WCVn-kom1v4-35" style="edgeStyle=orthogonalEdgeStyle;rounded=0;orthogonalLoop=1;jettySize=auto;html=1;exitX=0.5;exitY=1;exitDx=0;exitDy=0;entryX=0.5;entryY=0;entryDx=0;entryDy=0;" edge="1" parent="1" source="80N1JXQm5WCVn-kom1v4-4" target="80N1JXQm5WCVn-kom1v4-26">
          <mxGeometry relative="1" as="geometry" />
        </mxCell>
        <mxCell id="80N1JXQm5WCVn-kom1v4-4" value="alarm triggered" style="whiteSpace=wrap;html=1;aspect=fixed;" vertex="1" parent="1">
          <mxGeometry x="480" y="200" width="50" height="50" as="geometry" />
        </mxCell>
        <mxCell id="80N1JXQm5WCVn-kom1v4-33" style="edgeStyle=orthogonalEdgeStyle;rounded=0;orthogonalLoop=1;jettySize=auto;html=1;exitX=0.5;exitY=1;exitDx=0;exitDy=0;entryX=0.5;entryY=0;entryDx=0;entryDy=0;" edge="1" parent="1" source="80N1JXQm5WCVn-kom1v4-6" target="80N1JXQm5WCVn-kom1v4-26">
          <mxGeometry relative="1" as="geometry" />
        </mxCell>
        <mxCell id="80N1JXQm5WCVn-kom1v4-6" value="reset alarm" style="whiteSpace=wrap;html=1;aspect=fixed;" vertex="1" parent="1">
          <mxGeometry x="400" y="200" width="50" height="50" as="geometry" />
        </mxCell>
        <mxCell id="80N1JXQm5WCVn-kom1v4-37" style="edgeStyle=orthogonalEdgeStyle;rounded=0;orthogonalLoop=1;jettySize=auto;html=1;exitX=0.5;exitY=1;exitDx=0;exitDy=0;entryX=0.5;entryY=0;entryDx=0;entryDy=0;" edge="1" parent="1" source="80N1JXQm5WCVn-kom1v4-7" target="80N1JXQm5WCVn-kom1v4-26">
          <mxGeometry relative="1" as="geometry" />
        </mxCell>
        <mxCell id="80N1JXQm5WCVn-kom1v4-7" value="new node&amp;nbsp;&lt;div&gt;data&lt;/div&gt;" style="whiteSpace=wrap;html=1;aspect=fixed;" vertex="1" parent="1">
          <mxGeometry x="640" y="200" width="50" height="50" as="geometry" />
        </mxCell>
        <mxCell id="80N1JXQm5WCVn-kom1v4-36" style="edgeStyle=orthogonalEdgeStyle;rounded=0;orthogonalLoop=1;jettySize=auto;html=1;exitX=0.5;exitY=1;exitDx=0;exitDy=0;entryX=0.5;entryY=0;entryDx=0;entryDy=0;" edge="1" parent="1" source="80N1JXQm5WCVn-kom1v4-8" target="80N1JXQm5WCVn-kom1v4-26">
          <mxGeometry relative="1" as="geometry" />
        </mxCell>
        <mxCell id="80N1JXQm5WCVn-kom1v4-8" value="new node added" style="whiteSpace=wrap;html=1;aspect=fixed;" vertex="1" parent="1">
          <mxGeometry x="560" y="200" width="50" height="50" as="geometry" />
        </mxCell>
        <mxCell id="80N1JXQm5WCVn-kom1v4-30" style="edgeStyle=orthogonalEdgeStyle;rounded=0;orthogonalLoop=1;jettySize=auto;html=1;exitX=0.5;exitY=1;exitDx=0;exitDy=0;entryX=0.5;entryY=0;entryDx=0;entryDy=0;" edge="1" parent="1" source="80N1JXQm5WCVn-kom1v4-9" target="80N1JXQm5WCVn-kom1v4-27">
          <mxGeometry relative="1" as="geometry" />
        </mxCell>
        <mxCell id="80N1JXQm5WCVn-kom1v4-9" value="user in" style="whiteSpace=wrap;html=1;aspect=fixed;" vertex="1" parent="1">
          <mxGeometry x="240" y="200" width="50" height="50" as="geometry" />
        </mxCell>
        <mxCell id="80N1JXQm5WCVn-kom1v4-29" style="edgeStyle=orthogonalEdgeStyle;rounded=0;orthogonalLoop=1;jettySize=auto;html=1;exitX=0.5;exitY=1;exitDx=0;exitDy=0;entryX=0.5;entryY=0;entryDx=0;entryDy=0;" edge="1" parent="1" source="80N1JXQm5WCVn-kom1v4-10" target="80N1JXQm5WCVn-kom1v4-27">
          <mxGeometry relative="1" as="geometry" />
        </mxCell>
        <mxCell id="80N1JXQm5WCVn-kom1v4-10" value="user out" style="whiteSpace=wrap;html=1;aspect=fixed;" vertex="1" parent="1">
          <mxGeometry x="320" y="200" width="50" height="50" as="geometry" />
        </mxCell>
        <mxCell id="80N1JXQm5WCVn-kom1v4-65" style="edgeStyle=orthogonalEdgeStyle;rounded=0;orthogonalLoop=1;jettySize=auto;html=1;exitX=0;exitY=0.75;exitDx=0;exitDy=0;entryX=0.25;entryY=1;entryDx=0;entryDy=0;strokeColor=#0000FF;" edge="1" parent="1" source="80N1JXQm5WCVn-kom1v4-11" target="80N1JXQm5WCVn-kom1v4-27">
          <mxGeometry relative="1" as="geometry" />
        </mxCell>
        <mxCell id="80N1JXQm5WCVn-kom1v4-11" value="gate&lt;div&gt;R1&lt;/div&gt;&lt;div&gt;&lt;br&gt;&lt;/div&gt;" style="triangle;whiteSpace=wrap;html=1;direction=south;fillColor=#FFFF66;" vertex="1" parent="1">
          <mxGeometry x="80" y="440" width="80" height="70" as="geometry" />
        </mxCell>
        <mxCell id="80N1JXQm5WCVn-kom1v4-12" value="gate&lt;div&gt;R...&lt;/div&gt;&lt;div&gt;&lt;br&gt;&lt;/div&gt;" style="triangle;whiteSpace=wrap;html=1;direction=south;fillColor=#FFFF66;" vertex="1" parent="1">
          <mxGeometry x="180" y="440" width="80" height="70" as="geometry" />
        </mxCell>
        <mxCell id="80N1JXQm5WCVn-kom1v4-66" style="edgeStyle=orthogonalEdgeStyle;rounded=0;orthogonalLoop=1;jettySize=auto;html=1;exitX=0;exitY=0.5;exitDx=0;exitDy=0;entryX=0.5;entryY=1;entryDx=0;entryDy=0;strokeColor=#FF00FF;" edge="1" parent="1" source="80N1JXQm5WCVn-kom1v4-13" target="80N1JXQm5WCVn-kom1v4-26">
          <mxGeometry relative="1" as="geometry">
            <Array as="points">
              <mxPoint x="320" y="410" />
              <mxPoint x="585" y="410" />
            </Array>
          </mxGeometry>
        </mxCell>
        <mxCell id="80N1JXQm5WCVn-kom1v4-13" value="&lt;div&gt;alarm&lt;/div&gt;&lt;div&gt;&lt;br&gt;&lt;/div&gt;&lt;div&gt;&lt;br&gt;&lt;/div&gt;" style="triangle;whiteSpace=wrap;html=1;direction=south;fillColor=#FFFF66;" vertex="1" parent="1">
          <mxGeometry x="280" y="440" width="80" height="70" as="geometry" />
        </mxCell>
        <mxCell id="80N1JXQm5WCVn-kom1v4-14" value="&lt;div&gt;fire&lt;/div&gt;&lt;div&gt;R1&lt;/div&gt;&lt;div&gt;&lt;br&gt;&lt;/div&gt;" style="triangle;whiteSpace=wrap;html=1;direction=south;fillColor=#FF3333;" vertex="1" parent="1">
          <mxGeometry x="380" y="440" width="80" height="70" as="geometry" />
        </mxCell>
        <mxCell id="80N1JXQm5WCVn-kom1v4-15" value="&lt;div&gt;intruder&lt;/div&gt;&lt;div&gt;R1&lt;/div&gt;&lt;div&gt;&lt;br&gt;&lt;/div&gt;" style="triangle;whiteSpace=wrap;html=1;direction=south;fillColor=#33FF33;" vertex="1" parent="1">
          <mxGeometry x="680" y="440" width="80" height="70" as="geometry" />
        </mxCell>
        <mxCell id="80N1JXQm5WCVn-kom1v4-38" style="edgeStyle=orthogonalEdgeStyle;rounded=0;orthogonalLoop=1;jettySize=auto;html=1;exitX=0.5;exitY=1;exitDx=0;exitDy=0;entryX=0.5;entryY=0;entryDx=0;entryDy=0;" edge="1" parent="1" source="80N1JXQm5WCVn-kom1v4-16" target="80N1JXQm5WCVn-kom1v4-26">
          <mxGeometry relative="1" as="geometry" />
        </mxCell>
        <mxCell id="80N1JXQm5WCVn-kom1v4-16" value="forward" style="whiteSpace=wrap;html=1;aspect=fixed;" vertex="1" parent="1">
          <mxGeometry x="720" y="200" width="50" height="50" as="geometry" />
        </mxCell>
        <mxCell id="80N1JXQm5WCVn-kom1v4-17" value="&lt;div&gt;intruder&lt;/div&gt;&lt;div&gt;R1&lt;/div&gt;&lt;div&gt;&lt;br&gt;&lt;/div&gt;" style="triangle;whiteSpace=wrap;html=1;direction=south;fillColor=#33FF33;" vertex="1" parent="1">
          <mxGeometry x="580" y="440" width="80" height="70" as="geometry" />
        </mxCell>
        <mxCell id="80N1JXQm5WCVn-kom1v4-18" value="&lt;div&gt;fire&lt;/div&gt;&lt;div&gt;R1&lt;/div&gt;&lt;div&gt;&lt;br&gt;&lt;/div&gt;" style="triangle;whiteSpace=wrap;html=1;direction=south;fillColor=#FF3333;" vertex="1" parent="1">
          <mxGeometry x="480" y="440" width="80" height="70" as="geometry" />
        </mxCell>
        <mxCell id="80N1JXQm5WCVn-kom1v4-20" value="RS485 bus" style="whiteSpace=wrap;html=1;" vertex="1" parent="1">
          <mxGeometry x="80" y="580" width="680" height="20" as="geometry" />
        </mxCell>
        <mxCell id="80N1JXQm5WCVn-kom1v4-46" style="edgeStyle=orthogonalEdgeStyle;rounded=0;orthogonalLoop=1;jettySize=auto;html=1;exitX=0.5;exitY=1;exitDx=0;exitDy=0;entryX=0;entryY=0.5;entryDx=0;entryDy=0;strokeColor=#FF00FF;" edge="1" parent="1" source="80N1JXQm5WCVn-kom1v4-26" target="80N1JXQm5WCVn-kom1v4-13">
          <mxGeometry relative="1" as="geometry">
            <Array as="points">
              <mxPoint x="585" y="410" />
              <mxPoint x="320" y="410" />
            </Array>
          </mxGeometry>
        </mxCell>
        <mxCell id="80N1JXQm5WCVn-kom1v4-51" style="edgeStyle=orthogonalEdgeStyle;rounded=0;orthogonalLoop=1;jettySize=auto;html=1;exitX=0.5;exitY=1;exitDx=0;exitDy=0;entryX=0;entryY=0.25;entryDx=0;entryDy=0;strokeColor=#FF00FF;" edge="1" parent="1" source="80N1JXQm5WCVn-kom1v4-26" target="80N1JXQm5WCVn-kom1v4-12">
          <mxGeometry relative="1" as="geometry">
            <Array as="points">
              <mxPoint x="585" y="410" />
              <mxPoint x="240" y="410" />
            </Array>
          </mxGeometry>
        </mxCell>
        <mxCell id="80N1JXQm5WCVn-kom1v4-52" style="edgeStyle=orthogonalEdgeStyle;rounded=0;orthogonalLoop=1;jettySize=auto;html=1;exitX=0.5;exitY=1;exitDx=0;exitDy=0;entryX=0;entryY=0.25;entryDx=0;entryDy=0;strokeColor=#FF00FF;" edge="1" parent="1" source="80N1JXQm5WCVn-kom1v4-26" target="80N1JXQm5WCVn-kom1v4-11">
          <mxGeometry relative="1" as="geometry">
            <Array as="points">
              <mxPoint x="585" y="410" />
              <mxPoint x="140" y="410" />
            </Array>
          </mxGeometry>
        </mxCell>
        <mxCell id="80N1JXQm5WCVn-kom1v4-71" style="edgeStyle=orthogonalEdgeStyle;rounded=0;orthogonalLoop=1;jettySize=auto;html=1;exitX=0.5;exitY=0;exitDx=0;exitDy=0;entryX=0.5;entryY=1;entryDx=0;entryDy=0;" edge="1" parent="1" source="80N1JXQm5WCVn-kom1v4-26" target="80N1JXQm5WCVn-kom1v4-6">
          <mxGeometry relative="1" as="geometry" />
        </mxCell>
        <mxCell id="80N1JXQm5WCVn-kom1v4-72" style="edgeStyle=orthogonalEdgeStyle;rounded=0;orthogonalLoop=1;jettySize=auto;html=1;exitX=0.5;exitY=0;exitDx=0;exitDy=0;entryX=0.5;entryY=1;entryDx=0;entryDy=0;" edge="1" parent="1" source="80N1JXQm5WCVn-kom1v4-26" target="80N1JXQm5WCVn-kom1v4-4">
          <mxGeometry relative="1" as="geometry" />
        </mxCell>
        <mxCell id="80N1JXQm5WCVn-kom1v4-73" style="edgeStyle=orthogonalEdgeStyle;rounded=0;orthogonalLoop=1;jettySize=auto;html=1;exitX=0.5;exitY=0;exitDx=0;exitDy=0;entryX=0.5;entryY=1;entryDx=0;entryDy=0;" edge="1" parent="1" source="80N1JXQm5WCVn-kom1v4-26" target="80N1JXQm5WCVn-kom1v4-8">
          <mxGeometry relative="1" as="geometry" />
        </mxCell>
        <mxCell id="80N1JXQm5WCVn-kom1v4-74" style="edgeStyle=orthogonalEdgeStyle;rounded=0;orthogonalLoop=1;jettySize=auto;html=1;exitX=0.5;exitY=0;exitDx=0;exitDy=0;entryX=0.5;entryY=1;entryDx=0;entryDy=0;" edge="1" parent="1" source="80N1JXQm5WCVn-kom1v4-26" target="80N1JXQm5WCVn-kom1v4-7">
          <mxGeometry relative="1" as="geometry" />
        </mxCell>
        <mxCell id="80N1JXQm5WCVn-kom1v4-75" style="edgeStyle=orthogonalEdgeStyle;rounded=0;orthogonalLoop=1;jettySize=auto;html=1;exitX=0.5;exitY=0;exitDx=0;exitDy=0;entryX=0.5;entryY=1;entryDx=0;entryDy=0;" edge="1" parent="1" source="80N1JXQm5WCVn-kom1v4-26" target="80N1JXQm5WCVn-kom1v4-16">
          <mxGeometry relative="1" as="geometry" />
        </mxCell>
        <mxCell id="80N1JXQm5WCVn-kom1v4-26" value="MQTT" style="rounded=0;whiteSpace=wrap;html=1;" vertex="1" parent="1">
          <mxGeometry x="400" y="330" width="370" height="20" as="geometry" />
        </mxCell>
        <mxCell id="80N1JXQm5WCVn-kom1v4-49" style="edgeStyle=orthogonalEdgeStyle;rounded=0;orthogonalLoop=1;jettySize=auto;html=1;exitX=0.25;exitY=1;exitDx=0;exitDy=0;entryX=0;entryY=0.75;entryDx=0;entryDy=0;strokeColor=#0000FF;" edge="1" parent="1" source="80N1JXQm5WCVn-kom1v4-27" target="80N1JXQm5WCVn-kom1v4-11">
          <mxGeometry relative="1" as="geometry" />
        </mxCell>
        <mxCell id="80N1JXQm5WCVn-kom1v4-50" style="edgeStyle=orthogonalEdgeStyle;rounded=0;orthogonalLoop=1;jettySize=auto;html=1;exitX=0.25;exitY=1;exitDx=0;exitDy=0;entryX=0;entryY=0.75;entryDx=0;entryDy=0;fillColor=#0000FF;strokeColor=#0000FF;" edge="1" parent="1" source="80N1JXQm5WCVn-kom1v4-27" target="80N1JXQm5WCVn-kom1v4-12">
          <mxGeometry relative="1" as="geometry" />
        </mxCell>
        <mxCell id="80N1JXQm5WCVn-kom1v4-67" style="edgeStyle=orthogonalEdgeStyle;rounded=0;orthogonalLoop=1;jettySize=auto;html=1;exitX=0.5;exitY=0;exitDx=0;exitDy=0;entryX=0.5;entryY=1;entryDx=0;entryDy=0;" edge="1" parent="1" source="80N1JXQm5WCVn-kom1v4-27" target="80N1JXQm5WCVn-kom1v4-2">
          <mxGeometry relative="1" as="geometry" />
        </mxCell>
        <mxCell id="80N1JXQm5WCVn-kom1v4-68" style="edgeStyle=orthogonalEdgeStyle;rounded=0;orthogonalLoop=1;jettySize=auto;html=1;exitX=0.5;exitY=0;exitDx=0;exitDy=0;entryX=0.5;entryY=1;entryDx=0;entryDy=0;" edge="1" parent="1" source="80N1JXQm5WCVn-kom1v4-27" target="80N1JXQm5WCVn-kom1v4-3">
          <mxGeometry relative="1" as="geometry" />
        </mxCell>
        <mxCell id="80N1JXQm5WCVn-kom1v4-69" style="edgeStyle=orthogonalEdgeStyle;rounded=0;orthogonalLoop=1;jettySize=auto;html=1;exitX=0.5;exitY=0;exitDx=0;exitDy=0;entryX=0.5;entryY=1;entryDx=0;entryDy=0;" edge="1" parent="1" source="80N1JXQm5WCVn-kom1v4-27" target="80N1JXQm5WCVn-kom1v4-9">
          <mxGeometry relative="1" as="geometry" />
        </mxCell>
        <mxCell id="80N1JXQm5WCVn-kom1v4-70" style="edgeStyle=orthogonalEdgeStyle;rounded=0;orthogonalLoop=1;jettySize=auto;html=1;exitX=0.5;exitY=0;exitDx=0;exitDy=0;entryX=0.5;entryY=1;entryDx=0;entryDy=0;" edge="1" parent="1" source="80N1JXQm5WCVn-kom1v4-27" target="80N1JXQm5WCVn-kom1v4-10">
          <mxGeometry relative="1" as="geometry" />
        </mxCell>
        <mxCell id="80N1JXQm5WCVn-kom1v4-27" value="MQTT" style="rounded=0;whiteSpace=wrap;html=1;" vertex="1" parent="1">
          <mxGeometry x="80" y="330" width="290" height="20" as="geometry" />
        </mxCell>
        <mxCell id="80N1JXQm5WCVn-kom1v4-55" value="" style="endArrow=classic;startArrow=classic;html=1;rounded=0;exitX=0.649;exitY=-0.01;exitDx=0;exitDy=0;exitPerimeter=0;entryX=1;entryY=0.5;entryDx=0;entryDy=0;" edge="1" parent="1" source="80N1JXQm5WCVn-kom1v4-20" target="80N1JXQm5WCVn-kom1v4-18">
          <mxGeometry width="50" height="50" relative="1" as="geometry">
            <mxPoint x="380" y="390" as="sourcePoint" />
            <mxPoint x="430" y="340" as="targetPoint" />
          </mxGeometry>
        </mxCell>
        <mxCell id="80N1JXQm5WCVn-kom1v4-56" value="" style="endArrow=classic;startArrow=classic;html=1;rounded=0;entryX=1;entryY=0.5;entryDx=0;entryDy=0;exitX=0.794;exitY=0;exitDx=0;exitDy=0;exitPerimeter=0;" edge="1" parent="1" source="80N1JXQm5WCVn-kom1v4-20" target="80N1JXQm5WCVn-kom1v4-17">
          <mxGeometry width="50" height="50" relative="1" as="geometry">
            <mxPoint x="380" y="390" as="sourcePoint" />
            <mxPoint x="430" y="340" as="targetPoint" />
          </mxGeometry>
        </mxCell>
        <mxCell id="80N1JXQm5WCVn-kom1v4-57" value="" style="endArrow=classic;startArrow=classic;html=1;rounded=0;entryX=1;entryY=0.5;entryDx=0;entryDy=0;exitX=0.942;exitY=-0.01;exitDx=0;exitDy=0;exitPerimeter=0;" edge="1" parent="1" source="80N1JXQm5WCVn-kom1v4-20" target="80N1JXQm5WCVn-kom1v4-15">
          <mxGeometry width="50" height="50" relative="1" as="geometry">
            <mxPoint x="380" y="390" as="sourcePoint" />
            <mxPoint x="430" y="340" as="targetPoint" />
          </mxGeometry>
        </mxCell>
        <mxCell id="80N1JXQm5WCVn-kom1v4-58" value="" style="endArrow=classic;startArrow=classic;html=1;rounded=0;entryX=1;entryY=0.5;entryDx=0;entryDy=0;exitX=0.5;exitY=0;exitDx=0;exitDy=0;" edge="1" parent="1" source="80N1JXQm5WCVn-kom1v4-20" target="80N1JXQm5WCVn-kom1v4-14">
          <mxGeometry width="50" height="50" relative="1" as="geometry">
            <mxPoint x="380" y="390" as="sourcePoint" />
            <mxPoint x="430" y="340" as="targetPoint" />
          </mxGeometry>
        </mxCell>
        <mxCell id="80N1JXQm5WCVn-kom1v4-59" value="" style="endArrow=classic;startArrow=classic;html=1;rounded=0;exitX=1;exitY=0.5;exitDx=0;exitDy=0;entryX=0.353;entryY=0;entryDx=0;entryDy=0;entryPerimeter=0;" edge="1" parent="1" source="80N1JXQm5WCVn-kom1v4-13" target="80N1JXQm5WCVn-kom1v4-20">
          <mxGeometry width="50" height="50" relative="1" as="geometry">
            <mxPoint x="380" y="400" as="sourcePoint" />
            <mxPoint x="430" y="340" as="targetPoint" />
          </mxGeometry>
        </mxCell>
        <mxCell id="80N1JXQm5WCVn-kom1v4-61" value="" style="endArrow=classic;startArrow=classic;html=1;rounded=0;exitX=1;exitY=0.5;exitDx=0;exitDy=0;" edge="1" parent="1" source="80N1JXQm5WCVn-kom1v4-12">
          <mxGeometry width="50" height="50" relative="1" as="geometry">
            <mxPoint x="380" y="400" as="sourcePoint" />
            <mxPoint x="220" y="580" as="targetPoint" />
          </mxGeometry>
        </mxCell>
        <mxCell id="80N1JXQm5WCVn-kom1v4-63" value="" style="endArrow=classic;startArrow=classic;html=1;rounded=0;entryX=1;entryY=0.5;entryDx=0;entryDy=0;exitX=0.059;exitY=0;exitDx=0;exitDy=0;exitPerimeter=0;" edge="1" parent="1" source="80N1JXQm5WCVn-kom1v4-20" target="80N1JXQm5WCVn-kom1v4-11">
          <mxGeometry width="50" height="50" relative="1" as="geometry">
            <mxPoint x="330" y="550" as="sourcePoint" />
            <mxPoint x="380" y="500" as="targetPoint" />
          </mxGeometry>
        </mxCell>
        <mxCell id="80N1JXQm5WCVn-kom1v4-77" value="DASHBOARD" style="text;html=1;align=center;verticalAlign=middle;resizable=0;points=[];autosize=1;strokeColor=none;fillColor=none;" vertex="1" parent="1">
          <mxGeometry x="375" y="160" width="100" height="30" as="geometry" />
        </mxCell>
      </root>
    </mxGraphModel>
  </diagram>
</mxfile>
